# xmcd
#
# Track frame offsets:
#	150
#	2951
#	14472
#	24920
#	36344
#	51954
#	70595
#	82790
#	98018
#	115815
#	130218
#	154629
#	164133
#	177414
#	192558
#	211248
#	245661
#	257539
#	269444
#	291792
#	303165
#	312796
#	326717
#
# Disc length: 4671 seconds
#
# Revision: 0
# Processed by: cddbd v1.5.1PL0 Copyright (c) Steve Scherf et al.
# Submitted via: EasyCDDAExtractor 8.0.1.1
#
DISCID=3e123d17
DTITLE=Otis Redding - Otis! The Definitive Otis Redding, Vol. 4
DYEAR=1993
DGENRE=Blues
TTITLE0=Inrtroduction [live]
TTITLE1=Shake [live]
TTITLE2=Pain In My Heart [live]
TTITLE3=These Arms Of Mine [live]
TTITLE4=I Can't Turn You Loose [live]
TTITLE5=I've Been Loving You Too Long [live]
TTITLE6=My Girl [live]
TTITLE7=Your One And Only Man [live]
TTITLE8=Good To Me [live]
TTITLE9=Day Tripper [live]
TTITLE10=Just One More Day [live]
TTITLE11=Mr Pitiful [live]
TTITLE12=(I Can't Get No) Satisfaction [live]
TTITLE13=I'm Depending On You [live]
TTITLE14=Fa-Fa-Fa-Fa-Fa (Sad Song) [live]
TTITLE15=Chained And Bound [live]
TTITLE16=Ole Man Trouble [live]
TTITLE17=Any Ole Way [live]
TTITLE18=Papa's Got A Brand New Bag [live]
TTITLE19=Security [live]
TTITLE20=Hard Day's Night [live]
TTITLE21=Respect [live]
TTITLE22=Try A Little Tenderness [live]
EXTD=
EXTT0=
EXTT1=
EXTT2=
EXTT3=
EXTT4=
EXTT5=
EXTT6=
EXTT7=
EXTT8=
EXTT9=
EXTT10=
EXTT11=
EXTT12=
EXTT13=
EXTT14=
EXTT15=
EXTT16=
EXTT17=
EXTT18=
EXTT19=
EXTT20=
EXTT21=
EXTT22=
PLAYORDER=
